<?xml version="1.0" standalone="no"?>
<!DOCTYPE svg PUBLIC "-//W3C//DTD SVG 20010904//EN"
 "http://www.w3.org/TR/2001/REC-SVG-20010904/DTD/svg10.dtd">
<svg version="1.0" xmlns="http://www.w3.org/2000/svg"
 width="2048.000000pt" height="2048.000000pt" viewBox="0 0 2048.000000 2048.000000"
 preserveAspectRatio="xMidYMid meet">
<metadata>
Created by potrace 1.14, written by Peter Selinger 2001-2017
</metadata>
<g transform="translate(0.000000,2048.000000) scale(0.100000,-0.100000)"
fill="#000000" stroke="none">
<path d="M17825 18687 c-11 -6 -27 -14 -35 -18 -8 -5 -36 -20 -62 -34 -27 -14
-48 -30 -48 -35 0 -6 -6 -10 -14 -10 -13 0 -24 -10 -133 -112 -29 -27 -53 -46
-53 -43 0 3 -38 -33 -84 -80 -47 -47 -88 -85 -92 -85 -4 0 -47 -40 -95 -89
-49 -49 -102 -94 -118 -100 -15 -7 -34 -23 -41 -37 -8 -13 -15 -22 -17 -20 -2
2 -30 -21 -61 -51 -57 -54 -62 -59 -94 -91 -9 -9 -29 -26 -43 -37 -15 -11 -42
-33 -61 -49 -19 -15 -34 -26 -34 -23 0 5 -36 -27 -127 -114 -29 -27 -55 -49
-58 -49 -5 0 -120 -93 -156 -125 -9 -8 -19 -15 -23 -15 -4 0 -23 -16 -42 -35
-19 -20 -34 -32 -34 -29 0 4 -18 -12 -40 -35 -22 -22 -40 -44 -40 -49 0 -4 -8
-12 -19 -19 -30 -19 -82 -103 -86 -140 -2 -26 3 -39 26 -61 16 -15 29 -33 29
-39 0 -16 2 -16 115 -17 73 -1 94 2 109 16 11 10 26 18 33 18 7 0 13 5 13 10
0 6 7 10 15 10 9 0 28 9 44 21 15 11 34 22 42 23 44 9 68 19 73 33 3 8 10 12
15 8 5 -3 13 0 16 6 4 5 13 8 21 5 8 -3 25 6 39 20 14 14 25 22 25 18 0 -3 7
-1 14 6 8 6 26 10 39 8 13 -1 32 3 41 11 9 7 16 10 16 6 0 -4 12 4 26 18 15
15 31 24 36 21 5 -4 16 3 24 15 8 12 22 21 30 21 8 0 14 4 14 10 0 5 6 7 14 4
16 -6 46 8 77 34 23 20 59 22 76 6 21 -20 9 -72 -25 -107 -18 -18 -32 -38 -32
-45 0 -7 -4 -12 -8 -12 -16 0 -132 -186 -132 -212 0 -7 -11 -22 -25 -32 -14
-10 -25 -27 -25 -37 0 -11 -5 -19 -11 -19 -5 0 -8 -4 -5 -8 3 -5 -4 -18 -14
-30 -11 -12 -20 -26 -20 -32 0 -5 -4 -10 -10 -10 -5 0 -10 -5 -10 -11 0 -6 -9
-24 -21 -40 -11 -16 -17 -29 -13 -29 4 0 -7 -13 -24 -28 -18 -16 -29 -32 -25
-35 3 -4 1 -7 -5 -7 -7 0 -12 -7 -12 -15 0 -8 -9 -23 -20 -32 -11 -10 -20 -24
-20 -32 0 -7 -11 -24 -24 -36 -13 -12 -27 -31 -30 -42 -4 -11 -15 -28 -26 -38
-11 -10 -20 -24 -20 -31 0 -12 -12 -28 -80 -107 -19 -22 -34 -42 -32 -43 6
-10 -1 -24 -28 -59 -16 -20 -27 -41 -24 -46 3 -5 0 -9 -6 -9 -6 0 -19 -20 -29
-44 -11 -24 -30 -53 -42 -65 -13 -11 -19 -21 -15 -21 7 0 -3 -14 -36 -51 -10
-10 -18 -23 -18 -28 0 -4 -12 -22 -27 -39 -66 -72 -76 -95 -77 -161 -1 -42 3
-56 19 -67 11 -8 16 -14 12 -14 -4 0 9 -18 30 -41 41 -45 85 -72 121 -76 25
-2 65 33 70 62 2 10 17 31 33 46 17 16 29 35 27 42 -3 14 16 40 80 114 12 14
22 31 22 37 0 6 11 24 25 40 14 16 25 35 25 43 0 7 6 16 14 19 8 3 22 24 31
47 9 23 27 51 41 63 13 12 21 23 19 26 -3 3 9 17 25 32 17 15 28 31 25 36 -4
6 -2 10 4 10 5 0 24 29 43 65 18 36 36 65 41 65 4 0 5 5 2 10 -3 6 -1 10 4 10
6 0 11 8 11 18 0 10 15 31 34 47 19 16 33 32 30 37 -3 4 4 18 15 30 12 12 21
26 21 31 0 5 16 27 35 49 19 23 32 44 29 49 -2 4 2 11 9 16 13 8 27 34 33 60
1 7 15 26 31 42 42 43 63 70 75 97 6 13 15 24 19 24 4 0 16 16 25 35 9 19 22
35 29 35 12 0 40 55 36 73 0 4 4 7 10 7 5 0 16 15 24 34 8 18 27 48 42 67 15
18 26 35 23 38 -3 3 8 7 23 9 33 4 68 -22 60 -44 -3 -8 -1 -14 4 -14 20 0 10
-83 -16 -134 -24 -47 -26 -61 -26 -166 1 -75 -4 -124 -12 -140 -7 -14 -13 -33
-13 -42 0 -9 -3 -19 -7 -21 -13 -8 -8 -128 7 -177 7 -25 13 -48 12 -52 -1 -5
2 -8 8 -8 6 0 9 -3 9 -7 -4 -22 3 -35 25 -44 13 -6 27 -20 29 -30 4 -16 15
-19 68 -19 l63 0 61 63 c54 55 61 66 60 100 -1 21 2 40 7 43 5 3 17 22 27 42
14 29 18 58 17 127 -1 51 4 112 12 140 8 28 14 58 14 67 -1 10 3 20 8 23 5 3
7 17 4 30 -2 14 0 25 5 25 6 0 9 32 9 73 -1 77 7 117 23 117 6 0 7 5 4 10 -3
6 -3 16 2 23 10 16 14 34 19 82 5 44 5 44 3 100 -1 22 1 55 5 73 5 19 8 49 8
68 0 19 3 32 8 29 4 -2 6 9 5 25 -1 17 1 30 5 30 14 0 22 72 21 196 -1 74 3
125 9 129 6 3 8 17 6 30 -2 13 -1 26 2 30 4 4 7 10 8 13 0 4 6 21 13 37 7 17
14 80 16 140 1 61 3 111 5 113 1 1 3 10 4 20 1 9 7 27 14 39 6 12 14 32 16 45
3 13 5 23 6 23 1 0 3 29 4 65 2 52 -2 73 -20 106 -13 23 -21 44 -18 46 6 6
-49 63 -81 84 -27 18 -104 24 -130 11z"/>
<path d="M9416 18172 c-3 -2 -22 -5 -43 -7 -21 -1 -45 -5 -53 -8 -37 -14 -143
-28 -230 -31 -52 -1 -108 -8 -123 -14 -16 -7 -35 -12 -43 -12 -8 0 -14 -4 -14
-8 0 -10 -16 -12 -137 -15 -57 -1 -103 -5 -103 -9 0 -5 -14 -8 -30 -8 -17 0
-46 -7 -65 -14 -19 -8 -35 -12 -35 -9 0 3 -6 1 -12 -5 -7 -5 -33 -9 -58 -8
-25 1 -54 -1 -65 -5 -11 -4 -29 -11 -40 -15 -11 -4 -26 -6 -32 -5 -7 1 -13 -2
-13 -7 0 -5 -6 -9 -12 -10 -55 -5 -162 -23 -171 -29 -7 -4 -14 -8 -17 -9 -3 0
-17 -6 -31 -11 -14 -6 -50 -14 -79 -17 -30 -4 -57 -10 -60 -15 -8 -14 -57 -31
-90 -31 -16 0 -35 -7 -43 -15 -8 -7 -26 -17 -41 -21 -14 -3 -28 -10 -31 -14
-2 -4 -19 -6 -36 -4 -18 2 -38 -1 -46 -7 -7 -6 -13 -8 -13 -3 0 5 -4 5 -8 -1
-13 -19 -67 -41 -94 -40 -16 1 -28 -2 -28 -7 0 -5 -6 -8 -12 -5 -7 2 -23 -5
-36 -16 -12 -12 -37 -22 -55 -22 -33 -2 -117 -34 -117 -45 0 -4 -16 -7 -35 -8
-21 -1 -49 -12 -69 -27 -18 -14 -45 -25 -59 -25 -15 0 -27 -4 -27 -10 0 -5 -7
-7 -15 -4 -8 4 -15 1 -15 -5 0 -12 -35 -28 -73 -33 -13 -2 -36 -14 -51 -26
-28 -21 -45 -27 -75 -22 -7 1 -20 -8 -28 -19 -8 -12 -21 -21 -29 -21 -8 0 -14
-4 -14 -9 0 -5 -8 -8 -17 -7 -21 4 -63 -14 -63 -25 0 -8 -36 -23 -60 -24 -27
-1 -130 -57 -146 -79 -8 -11 -18 -20 -22 -20 -21 4 -90 -27 -96 -42 -3 -8 -14
-14 -23 -14 -10 0 -26 -8 -35 -17 -29 -31 -42 -39 -60 -35 -10 2 -18 -2 -18
-8 0 -6 -4 -8 -10 -5 -5 3 -10 2 -10 -3 0 -5 -15 -15 -32 -23 -18 -7 -35 -16
-38 -19 -3 -4 -34 -21 -69 -38 -36 -18 -72 -39 -80 -46 -9 -8 -19 -14 -23 -13
-3 1 -19 -9 -35 -23 -15 -13 -30 -23 -31 -21 -2 2 -18 -7 -35 -20 -18 -13 -35
-23 -39 -21 -5 1 -8 -3 -8 -8 0 -6 -5 -10 -10 -10 -6 0 -21 -11 -34 -25 -13
-14 -28 -25 -34 -25 -6 0 -24 -12 -41 -26 -17 -14 -38 -27 -46 -28 -8 -1 -23
-11 -34 -22 -17 -18 -139 -99 -200 -134 -14 -8 -32 -23 -39 -32 -7 -10 -20
-18 -28 -18 -7 0 -32 -16 -54 -36 -22 -20 -40 -34 -40 -31 0 3 -22 -16 -48
-41 -27 -26 -59 -54 -71 -62 -13 -8 -37 -27 -55 -42 -17 -15 -35 -28 -39 -28
-5 0 -5 -4 -2 -10 3 -5 0 -10 -7 -10 -13 0 -78 -55 -154 -130 -17 -16 -35 -30
-40 -30 -5 0 -20 -14 -34 -30 -14 -17 -34 -38 -45 -48 -54 -48 -495 -490 -495
-496 0 -4 -22 -31 -50 -59 -95 -99 -160 -172 -160 -180 0 -5 -11 -18 -26 -29
-14 -11 -23 -22 -20 -25 2 -3 -7 -17 -22 -33 -15 -15 -38 -42 -52 -61 -14 -18
-39 -49 -55 -69 -17 -19 -46 -55 -65 -80 -19 -25 -37 -47 -40 -50 -6 -5 -23
-45 -19 -45 1 0 -16 -18 -37 -41 -53 -55 -74 -82 -74 -93 0 -5 -12 -24 -27
-42 -16 -18 -27 -33 -25 -33 8 -2 -19 -56 -28 -56 -5 0 -9 -3 -8 -7 2 -14 -15
-47 -37 -69 -35 -37 -54 -62 -49 -67 2 -2 -2 -10 -11 -17 -8 -7 -15 -21 -15
-31 0 -10 -12 -24 -27 -32 -16 -7 -27 -18 -26 -24 1 -6 -8 -22 -20 -35 -12
-14 -24 -33 -26 -44 -4 -26 -21 -57 -28 -50 -7 7 -34 -20 -31 -31 3 -10 -22
-56 -34 -64 -5 -3 -10 -18 -12 -33 -1 -15 -13 -39 -25 -54 -12 -15 -25 -39
-28 -54 -3 -16 -10 -28 -15 -28 -5 0 -6 -4 -3 -10 3 -5 3 -10 -2 -10 -10 0
-43 -57 -43 -76 0 -8 -4 -14 -9 -14 -5 0 -15 -16 -22 -35 -7 -19 -17 -35 -23
-35 -5 0 -6 -3 -3 -6 3 -4 -4 -15 -16 -25 -17 -12 -23 -26 -21 -48 1 -17 -2
-31 -7 -31 -10 0 -43 -59 -45 -82 -1 -9 -12 -33 -25 -55 -13 -21 -24 -40 -25
-43 -4 -37 -19 -72 -35 -80 -12 -7 -19 -21 -19 -40 0 -17 -9 -39 -21 -51 -13
-13 -24 -39 -27 -64 -2 -25 -14 -54 -28 -70 -13 -16 -24 -35 -25 -44 -2 -42
-8 -59 -32 -94 -16 -24 -24 -47 -22 -66 3 -20 -4 -37 -24 -58 -19 -22 -26 -39
-26 -66 1 -24 -8 -53 -24 -80 -14 -23 -26 -58 -27 -78 -1 -37 -31 -99 -47 -99
-5 0 -7 -12 -6 -27 4 -45 -12 -114 -28 -120 -8 -3 -12 -12 -9 -19 3 -8 1 -14
-5 -14 -6 0 -9 -15 -8 -32 3 -40 -9 -98 -21 -98 -13 0 -23 -31 -30 -95 -8 -73
-11 -86 -28 -103 -6 -7 -12 -22 -12 -33 0 -10 -3 -19 -7 -19 -5 0 -7 -28 -7
-62 1 -35 -3 -69 -9 -75 -5 -7 -6 -13 -3 -13 4 0 1 -7 -6 -15 -7 -8 -17 -20
-23 -27 -5 -7 -10 -51 -10 -98 1 -47 -3 -91 -8 -97 -5 -7 -7 -20 -3 -28 3 -8
1 -15 -4 -15 -6 0 -10 -7 -10 -15 0 -8 -4 -15 -9 -15 -5 0 -7 -9 -4 -20 3 -11
1 -20 -4 -20 -5 0 -9 -32 -9 -70 1 -39 -2 -70 -6 -70 -5 0 -8 -9 -8 -19 0 -10
-7 -21 -15 -24 -8 -4 -12 -15 -10 -27 2 -11 0 -20 -4 -20 -4 0 -8 -53 -8 -117
-1 -65 -6 -152 -13 -193 -6 -41 -13 -86 -15 -100 -1 -14 -4 -25 -5 -25 -9 0
-13 -226 -16 -872 -2 -409 0 -743 4 -743 5 0 7 -20 7 -45 -1 -25 1 -45 5 -45
4 0 7 -19 8 -42 1 -24 6 -72 13 -108 6 -36 11 -116 11 -177 0 -63 5 -113 10
-113 5 0 8 -6 6 -12 -1 -7 7 -31 18 -53 15 -30 20 -58 19 -112 -1 -40 2 -73 6
-73 4 0 7 -8 7 -17 -1 -10 7 -45 18 -78 10 -33 19 -89 20 -125 1 -36 4 -73 8
-82 4 -9 4 -22 0 -29 -4 -7 -3 -9 4 -5 6 3 13 -6 17 -24 4 -16 10 -30 15 -30
4 0 8 -26 8 -58 -1 -55 22 -128 45 -143 5 -4 8 -25 5 -48 -2 -22 0 -41 4 -41
5 0 8 -8 8 -19 0 -10 7 -24 15 -31 13 -11 17 -24 29 -101 2 -14 14 -45 25 -67
12 -23 21 -60 21 -85 0 -28 7 -53 19 -68 21 -28 34 -61 38 -104 4 -49 6 -55
13 -55 12 0 37 -65 35 -93 -1 -15 2 -27 7 -27 4 0 8 -7 8 -15 0 -7 8 -18 17
-23 9 -5 17 -23 18 -38 3 -41 16 -84 25 -84 9 0 21 -27 25 -57 6 -40 18 -68
36 -81 11 -7 19 -24 19 -36 0 -13 8 -34 19 -47 19 -25 31 -56 35 -92 2 -12 15
-39 29 -61 15 -21 24 -43 21 -48 -3 -5 3 -19 13 -31 21 -23 32 -47 39 -85 3
-13 13 -33 24 -44 10 -11 21 -32 25 -46 4 -15 16 -43 28 -62 12 -19 22 -40 23
-47 1 -7 16 -34 33 -60 17 -25 31 -52 31 -60 0 -7 9 -18 20 -25 12 -8 20 -24
20 -40 0 -16 10 -35 28 -50 15 -12 26 -30 24 -40 -2 -9 7 -27 20 -40 27 -28
53 -69 74 -118 9 -19 27 -47 41 -62 14 -14 24 -28 23 -30 -5 -10 21 -58 31
-58 7 0 10 -3 6 -6 -3 -4 9 -23 28 -43 19 -20 38 -44 41 -55 6 -18 29 -55 74
-114 14 -19 25 -37 25 -40 0 -4 11 -22 25 -40 14 -19 25 -38 25 -43 0 -5 11
-16 25 -23 14 -7 24 -18 22 -24 -1 -7 2 -12 8 -12 5 0 10 -7 10 -15 0 -9 7
-18 15 -21 8 -4 12 -10 9 -15 -3 -5 -1 -9 5 -9 5 0 13 -10 17 -22 3 -12 26
-41 50 -64 24 -23 44 -46 44 -52 0 -6 6 -15 13 -19 8 -4 27 -28 43 -53 16 -25
36 -50 44 -57 8 -7 11 -13 7 -13 -5 0 5 -14 22 -31 17 -17 31 -35 31 -40 0 -5
11 -14 25 -19 14 -5 25 -15 25 -22 0 -7 22 -35 50 -63 57 -58 110 -120 110
-129 0 -3 18 -23 40 -45 22 -21 40 -42 40 -45 0 -4 18 -26 40 -48 22 -23 40
-46 40 -50 0 -4 7 -8 15 -8 8 0 15 -5 15 -11 0 -14 134 -149 148 -149 5 0 12
-9 15 -20 3 -11 12 -20 19 -20 8 0 20 -11 26 -25 7 -14 19 -28 28 -32 9 -3 60
-49 114 -102 54 -53 110 -105 125 -116 15 -11 38 -29 50 -40 11 -11 38 -33 59
-49 21 -16 55 -46 75 -67 20 -22 39 -39 43 -39 3 0 21 -13 40 -30 85 -76 103
-90 110 -90 5 0 17 -8 27 -18 55 -50 82 -72 91 -72 5 0 15 -8 22 -18 12 -16
66 -56 78 -57 6 0 43 -31 72 -58 10 -9 21 -17 24 -17 3 0 24 -16 46 -35 23
-19 44 -32 48 -30 5 3 10 -2 14 -10 3 -8 12 -15 21 -15 8 0 15 -5 15 -11 0 -5
4 -8 9 -5 8 6 63 -31 69 -46 2 -5 7 -6 12 -3 7 5 61 -35 116 -85 12 -11 29
-20 37 -20 9 0 22 -9 30 -20 8 -11 17 -17 20 -13 4 3 7 1 7 -5 0 -7 11 -12 25
-12 13 0 29 -8 34 -18 6 -9 11 -13 11 -9 0 5 12 -1 26 -12 15 -12 32 -21 38
-21 6 0 17 -9 24 -20 7 -11 19 -20 27 -20 21 0 57 -21 73 -43 7 -9 18 -15 23
-11 6 3 27 -7 47 -23 20 -17 47 -29 60 -28 12 1 22 -2 22 -6 0 -4 9 -11 20
-14 11 -4 17 -11 14 -17 -4 -7 -2 -8 4 -4 6 4 31 -6 54 -21 24 -15 46 -26 51
-25 4 1 7 -3 7 -9 0 -6 6 -9 14 -6 8 3 24 -5 36 -18 13 -14 27 -22 31 -19 5 3
9 0 9 -5 0 -6 11 -11 23 -11 13 0 35 -9 48 -20 13 -11 29 -23 34 -27 6 -5 20
-7 32 -5 12 2 39 -8 60 -22 21 -14 44 -26 51 -26 16 0 74 -31 84 -45 4 -5 22
-10 41 -10 19 -1 48 -10 63 -20 16 -11 32 -20 37 -21 4 -1 9 -3 12 -4 3 -1 8
-3 13 -5 51 -14 63 -19 70 -31 4 -8 26 -16 49 -18 23 -3 63 -16 89 -30 27 -14
57 -26 67 -26 10 0 30 -9 46 -21 15 -11 48 -23 72 -26 51 -5 99 -22 99 -34 0
-7 35 -17 85 -24 6 -1 13 -3 18 -5 4 -1 10 -3 15 -4 4 -1 23 -10 42 -21 22
-11 56 -19 90 -19 35 -1 66 -7 83 -19 14 -9 31 -17 37 -17 5 0 10 -4 10 -9 0
-5 21 -8 46 -7 25 1 48 -2 50 -6 3 -4 13 -8 22 -8 9 0 31 -7 47 -16 17 -9 53
-18 81 -19 58 -3 82 -9 139 -34 22 -10 66 -19 98 -20 32 -1 71 -7 85 -13 15
-6 29 -12 32 -13 3 -1 13 -5 23 -9 9 -5 23 -6 31 -3 8 3 16 1 18 -4 2 -6 39
-11 86 -11 45 0 82 -4 82 -8 0 -4 11 -5 25 -2 16 3 25 0 25 -8 0 -7 7 -10 15
-7 8 4 17 2 20 -3 4 -6 19 -10 34 -10 15 0 30 -3 33 -6 4 -3 44 -7 90 -9 82
-3 97 -5 131 -20 9 -4 24 -5 32 -1 8 3 15 1 15 -4 0 -6 13 -10 28 -10 16 0 32
-3 35 -7 4 -3 109 -7 234 -7 126 -1 233 -4 238 -7 10 -5 515 -4 525 1 3 2 129
4 280 5 251 2 305 5 350 22 8 4 23 5 33 4 9 -1 17 2 17 6 0 5 10 10 23 11 12
1 60 6 107 10 47 5 95 13 106 20 12 6 24 8 28 5 3 -3 6 -2 6 4 0 5 6 10 13 11
6 1 35 4 62 7 115 11 139 16 145 25 3 5 17 11 30 12 14 2 27 6 30 10 3 4 37 8
75 9 62 2 153 29 163 49 1 3 36 4 77 3 41 -2 75 2 75 7 0 5 9 7 20 5 11 -2 20
0 20 6 0 5 7 9 15 9 8 0 15 5 15 11 0 5 4 8 9 4 5 -3 12 -1 15 3 3 5 22 7 42
5 27 -3 48 4 83 24 34 21 60 28 101 29 53 1 110 19 110 35 0 4 9 6 20 4 11 -2
20 1 20 6 0 5 6 9 13 7 18 -4 97 24 97 34 0 5 4 7 9 3 5 -3 12 -1 16 5 3 5 22
10 42 10 30 0 92 31 101 50 1 4 15 5 30 2 19 -2 36 4 57 22 17 15 43 26 60 27
48 1 62 6 84 28 12 12 27 21 34 22 33 2 51 9 59 23 5 9 16 16 23 16 8 0 15 4
15 9 0 6 16 8 35 7 21 -2 39 2 46 10 6 8 17 14 24 14 7 0 16 7 19 15 3 9 11
15 18 13 18 -4 78 22 78 34 0 5 4 7 9 3 5 -3 12 -1 16 5 3 5 17 10 29 10 13 0
35 9 48 20 14 10 28 16 32 13 3 -3 6 -1 6 5 0 7 5 12 11 12 5 0 27 11 47 25
20 14 45 25 54 25 10 0 18 3 18 8 0 8 57 42 72 42 6 0 18 8 27 18 17 20 45 34
74 37 10 1 29 13 42 27 13 15 40 31 60 38 19 6 35 16 35 21 0 5 3 8 8 7 12 -3
65 25 84 44 10 10 23 18 29 18 6 0 29 16 51 35 23 19 45 32 49 29 5 -3 9 -1 9
5 0 6 15 18 33 27 17 9 45 28 61 41 17 14 40 29 53 34 13 5 23 14 23 20 0 7 3
9 7 6 3 -4 12 -2 20 4 7 6 13 9 13 6 0 -3 17 10 38 28 20 19 47 43 60 55 12
11 26 20 31 20 5 0 20 9 35 21 14 11 26 17 26 13 0 -3 15 10 33 30 18 20 38
36 43 36 5 0 22 13 37 30 15 16 34 27 42 24 8 -4 35 16 67 48 28 29 55 53 59
53 4 0 20 12 36 27 15 15 48 43 73 63 81 64 121 99 186 162 35 34 64 59 64 57
0 -3 38 33 84 80 46 47 89 86 95 86 6 0 10 3 10 8 -3 19 2 32 14 32 16 0 137
121 137 138 0 6 5 12 11 12 13 0 145 132 141 143 -1 4 2 7 8 7 5 0 29 20 52
44 24 25 67 70 96 99 28 30 52 58 52 62 0 4 25 31 55 61 30 30 52 54 49 54 -3
0 5 10 16 22 11 13 23 32 26 43 3 11 19 28 36 38 17 10 28 20 25 24 -4 3 8 19
24 34 17 16 28 29 25 29 -4 0 7 15 23 33 17 17 31 38 31 45 0 6 11 22 25 34
14 12 25 27 25 34 0 8 9 18 20 24 11 6 23 22 26 36 4 14 9 23 12 20 6 -7 82
88 82 103 0 6 5 11 12 11 6 0 8 3 5 7 -4 3 7 19 23 35 17 15 30 31 30 34 0 3
11 20 25 38 14 18 25 40 25 49 0 8 14 27 30 40 17 14 30 30 30 35 0 5 9 19 20
32 11 13 20 30 20 38 0 8 14 30 30 49 17 18 30 40 30 48 0 8 4 15 9 15 5 0 12
9 16 19 9 29 61 91 69 83 4 -4 7 -2 6 3 -5 25 2 46 26 74 14 17 24 38 21 45
-3 8 3 22 13 31 11 10 17 21 15 25 -3 4 1 10 9 13 8 3 17 19 21 36 3 16 13 35
21 41 7 7 11 16 8 21 -3 5 0 9 5 9 6 0 11 8 11 19 0 10 8 29 19 42 10 13 21
34 25 47 4 12 11 22 15 22 7 0 53 75 51 85 -2 15 13 55 21 55 5 0 9 7 9 15 0
8 5 15 10 15 6 0 10 6 9 12 -2 20 12 58 22 58 5 0 9 7 9 15 0 8 4 15 8 15 4 0
9 12 10 27 1 15 14 44 27 64 14 20 25 40 24 45 -5 26 3 53 21 72 12 12 18 22
14 22 -3 0 -2 6 3 13 6 6 13 29 16 49 3 20 15 46 26 57 12 12 21 30 21 42 0
11 11 39 24 62 14 23 27 60 29 82 3 21 10 41 17 43 14 5 32 47 36 83 1 14 12
43 25 65 12 21 23 53 24 69 1 17 10 48 20 70 10 22 17 43 17 48 -1 4 3 7 8 7
6 0 10 12 9 27 -3 46 12 114 26 119 8 3 12 14 10 25 -2 10 1 19 6 19 6 0 10
17 8 38 -2 45 8 87 33 127 13 21 18 50 18 97 0 37 5 70 10 73 6 4 8 11 5 16
-4 5 -3 15 2 22 10 15 12 77 3 77 -4 0 -7 6 -8 13 -1 6 -5 32 -8 57 -5 36 -15
54 -48 85 l-41 41 -100 -1 -99 -1 -39 39 -38 38 4 92 c9 166 12 202 18 212 3
6 5 25 4 43 -1 18 2 35 7 38 4 3 8 27 8 53 0 26 3 50 6 53 9 10 6 1716 -4
1735 -5 10 -7 24 -5 31 3 7 1 20 -3 30 -4 9 -8 25 -9 35 -2 9 -3 18 -5 20 -8
10 -13 69 -20 242 -4 110 -10 214 -14 230 -4 17 -7 36 -8 43 -1 6 -5 12 -10
12 -4 0 -8 11 -8 23 0 13 -3 27 -7 30 -3 4 -8 64 -9 135 -3 129 -5 159 -16
177 -14 26 -32 127 -32 190 -1 39 -5 76 -10 83 -4 7 -5 16 -2 19 3 3 -1 15 -9
27 -8 11 -15 28 -15 38 0 10 -4 18 -8 18 -5 0 -8 24 -7 53 1 40 -5 61 -24 91
-22 33 -26 52 -27 120 -1 79 -4 94 -27 146 -6 14 -9 31 -8 38 1 6 -2 12 -8 12
-5 0 -9 30 -10 67 0 50 -6 79 -24 113 -15 30 -24 65 -26 105 -1 33 -6 64 -12
71 -5 6 -6 14 -2 17 3 4 1 7 -6 7 -7 0 -10 4 -7 9 4 5 1 11 -5 13 -6 2 -13 28
-16 58 -6 80 -10 93 -35 123 -19 22 -23 37 -22 92 1 36 -3 65 -8 65 -6 0 -8 7
-5 15 4 8 2 17 -4 20 -17 11 -36 69 -34 105 1 19 -1 37 -4 40 -20 17 -46 91
-48 134 -1 63 1 55 -25 96 -13 19 -23 53 -24 74 -1 28 -8 45 -24 58 -12 10
-19 18 -14 18 4 0 3 5 -4 12 -7 7 -12 38 -12 70 0 45 -4 61 -21 77 -12 11 -18
24 -15 29 3 6 2 12 -3 14 -5 1 -11 23 -14 48 -3 30 -12 50 -28 63 -17 13 -23
27 -21 47 2 15 -2 31 -8 35 -5 3 -8 11 -5 16 4 5 2 9 -4 9 -20 0 -38 55 -35
108 2 33 -1 52 -8 52 -6 0 -8 3 -5 7 11 10 -44 42 -61 35 -41 -15 -104 -82
-164 -173 -20 -30 -44 -61 -52 -68 -9 -8 -16 -17 -16 -22 0 -5 -24 -33 -54
-64 -30 -30 -52 -55 -48 -55 4 0 0 -6 -8 -13 -8 -7 -39 -39 -69 -72 -95 -105
-214 -225 -222 -225 -5 0 -17 -8 -28 -17 -10 -10 -34 -32 -53 -49 -19 -17 -38
-43 -42 -57 -3 -15 -11 -27 -17 -27 -6 0 -7 -4 -4 -10 3 -5 2 -10 -3 -10 -10
0 -27 -48 -23 -64 1 -6 2 -69 1 -140 -1 -72 -1 -144 0 -161 1 -16 2 -34 2 -40
-1 -13 -1 -163 -1 -230 0 -27 0 -81 0 -120 0 -38 0 -77 0 -85 0 -8 0 -53 -1
-100 -1 -147 -1 -354 0 -385 1 -16 2 -34 2 -40 -1 -13 -1 -163 -1 -230 0 -27
0 -81 0 -120 0 -38 0 -77 0 -85 0 -8 0 -53 -1 -100 -1 -147 -1 -354 0 -385 1
-16 2 -34 2 -40 -1 -13 -1 -163 -1 -230 0 -27 0 -81 0 -120 0 -38 0 -77 0 -85
0 -8 0 -53 -1 -100 0 -68 -1 -275 -1 -367 0 -10 0 -83 0 -163 0 -80 0 -158 1
-175 1 -16 2 -34 2 -40 -1 -13 -1 -163 -1 -230 0 -27 0 -81 0 -120 0 -38 0
-77 0 -85 0 -8 0 -53 -1 -100 -1 -147 -1 -354 0 -385 1 -16 2 -34 2 -40 -1
-13 -1 -163 -1 -230 0 -27 0 -81 0 -120 0 -38 0 -77 0 -85 0 -8 0 -53 -1 -100
-1 -147 -1 -354 0 -385 1 -16 2 -34 2 -40 -1 -13 -1 -163 -1 -230 0 -27 0 -81
0 -120 0 -38 0 -77 0 -85 0 -8 0 -53 -1 -100 -1 -147 -1 -354 0 -385 1 -16 2
-34 2 -40 -1 -13 -1 -163 -1 -230 0 -84 0 -189 0 -210 0 -79 0 -262 0 -320 0
-38 -3 -81 -8 -95 -5 -14 -8 -41 -7 -60 0 -19 -2 -39 -5 -45 -3 -5 -6 -17 -6
-25 0 -8 -6 -25 -13 -37 -7 -12 -12 -31 -12 -42 0 -11 -12 -33 -26 -48 -41
-45 -49 -55 -84 -110 -18 -29 -37 -53 -42 -53 -4 0 -8 -6 -8 -14 0 -8 -6 -21
-12 -28 -7 -7 -26 -31 -43 -53 -41 -56 -42 -57 -117 -134 -38 -38 -68 -73 -68
-77 0 -3 -16 -22 -36 -40 -19 -19 -32 -34 -28 -34 6 0 -39 -53 -105 -125 -15
-16 -44 -52 -64 -80 -20 -27 -69 -82 -109 -121 -40 -39 -74 -74 -75 -78 -2
-11 -154 -166 -162 -166 -4 0 -29 -22 -56 -50 -28 -27 -54 -50 -58 -50 -5 0
-23 -16 -40 -35 -17 -19 -36 -35 -43 -35 -7 0 -23 -13 -36 -29 -14 -16 -44
-41 -69 -57 -24 -16 -48 -34 -52 -41 -4 -7 -14 -13 -21 -13 -7 0 -33 -23 -58
-50 -25 -28 -50 -50 -56 -50 -6 0 -19 -11 -30 -25 -11 -14 -24 -25 -28 -25 -5
0 -25 -15 -44 -33 -19 -17 -35 -30 -35 -27 0 3 -13 -6 -28 -20 -48 -44 -61
-54 -113 -93 -29 -20 -56 -37 -61 -37 -10 0 -71 -44 -103 -73 -21 -20 -60 -39
-60 -30 0 3 -14 -6 -30 -22 -17 -16 -38 -30 -48 -31 -9 -2 -25 -12 -34 -24 -9
-11 -19 -21 -22 -20 -4 0 -7 0 -8 -1 -2 0 -12 -2 -23 -4 -11 -2 -21 -9 -23
-14 -2 -6 -10 -11 -18 -11 -8 0 -14 -4 -14 -9 0 -5 -8 -12 -17 -15 -10 -3 -31
-17 -47 -31 -16 -14 -35 -25 -42 -25 -7 0 -25 -10 -41 -23 -24 -20 -54 -37
-73 -41 -3 -1 -16 -9 -30 -18 -14 -10 -35 -19 -45 -21 -11 -1 -26 -6 -32 -10
-7 -5 -13 -6 -13 -3 0 3 -9 -3 -20 -14 -11 -11 -28 -20 -38 -20 -10 0 -23 -5
-30 -12 -7 -7 -12 -8 -12 -3 0 4 -9 -3 -21 -16 -11 -13 -26 -25 -32 -25 -7 -1
-20 -2 -29 -3 -9 0 -23 -7 -30 -13 -21 -20 -65 -41 -75 -35 -5 3 -35 -8 -68
-24 -33 -16 -66 -29 -75 -29 -9 0 -25 -7 -36 -15 -12 -8 -24 -11 -28 -8 -3 3
-6 1 -6 -6 0 -7 -4 -9 -10 -6 -5 3 -10 1 -10 -4 0 -6 -7 -11 -16 -11 -9 0 -32
-10 -51 -21 -20 -12 -56 -26 -81 -31 -25 -4 -48 -12 -52 -17 -7 -13 -58 -33
-90 -36 -37 -3 -72 -16 -100 -35 -14 -9 -36 -16 -50 -15 -14 1 -29 -1 -35 -5
-5 -5 -13 -9 -18 -9 -4 0 -22 -8 -40 -18 -17 -9 -48 -18 -67 -19 -48 -4 -123
-25 -132 -38 -4 -5 -31 -11 -60 -12 -55 -2 -83 -9 -107 -28 -19 -15 -35 -18
-156 -26 -96 -7 -143 -13 -152 -20 -2 -2 -6 -3 -10 -4 -5 -1 -25 -8 -46 -15
-20 -7 -68 -14 -105 -16 -61 -3 -127 -10 -127 -15 0 -11 -141 -32 -240 -36
-60 -2 -141 -6 -180 -10 -38 -3 -104 -7 -145 -9 -41 -1 -91 -6 -110 -9 -55
-10 -550 -12 -553 -3 -3 9 -58 15 -179 19 -38 1 -68 5 -68 9 0 4 -64 7 -142 8
-154 1 -218 8 -218 23 0 5 -4 6 -10 3 -5 -3 -16 -3 -22 2 -16 9 -28 11 -163
22 -65 5 -111 13 -113 20 -2 6 -8 8 -13 5 -6 -3 -17 0 -25 7 -8 6 -56 14 -109
17 -52 2 -95 8 -95 13 0 5 -7 6 -15 3 -8 -4 -22 -1 -30 6 -8 7 -15 9 -15 5 0
-4 -6 -3 -12 3 -14 11 -65 22 -121 27 -17 1 -57 14 -87 27 -30 14 -66 23 -80
21 -13 -2 -42 5 -65 16 -54 27 -74 33 -110 36 -17 1 -53 14 -81 28 -28 14 -59
25 -69 23 -10 -1 -37 7 -59 18 -23 11 -44 19 -48 18 -5 -1 -8 2 -8 7 0 5 -18
8 -40 7 -31 -1 -42 3 -46 17 -3 9 -10 15 -15 12 -5 -4 -19 1 -31 9 -12 9 -34
16 -48 16 -14 0 -41 11 -60 25 -20 15 -47 25 -67 25 -18 0 -33 5 -33 11 0 5
-5 7 -10 4 -6 -3 -13 0 -16 8 -4 12 -99 46 -99 36 0 -2 -12 9 -27 23 -15 14
-37 24 -50 23 -26 -2 -53 9 -83 35 -11 9 -31 16 -45 16 -14 -1 -29 2 -35 7 -5
4 -21 16 -34 27 -13 11 -32 20 -41 20 -10 0 -28 11 -41 25 -13 13 -30 25 -37
25 -14 0 -50 19 -70 37 -7 7 -21 13 -31 13 -9 0 -32 11 -51 25 -19 14 -40 25
-47 25 -7 0 -13 4 -13 10 0 5 -3 9 -7 8 -5 -1 -20 6 -35 16 -15 10 -34 19 -42
20 -8 1 -23 9 -33 18 -10 9 -35 23 -55 31 -21 9 -50 27 -65 42 -16 14 -36 28
-45 31 -10 3 -18 9 -18 14 0 5 -10 12 -23 15 -12 4 -36 18 -54 31 -17 13 -36
24 -42 24 -5 0 -14 7 -19 16 -5 9 -12 15 -16 15 -9 -2 -64 27 -84 45 -32 28
-112 84 -112 78 0 -3 -14 10 -30 28 -17 18 -30 29 -30 24 0 -5 -14 5 -30 23
-17 17 -35 31 -41 31 -12 0 -85 54 -110 82 -9 10 -21 18 -26 18 -5 0 -20 13
-33 30 -14 16 -29 29 -34 30 -8 0 -60 43 -133 112 -18 16 -33 27 -33 23 0 -3
-12 6 -26 20 -14 14 -30 23 -35 20 -5 -4 -9 0 -9 7 -1 7 -21 29 -46 48 -37 29
-212 201 -314 310 -14 14 -32 31 -41 36 -8 5 -23 20 -32 34 -9 13 -63 72 -120
131 -150 157 -187 197 -187 208 0 6 -8 15 -18 20 -9 6 -13 11 -9 11 9 0 -24
44 -69 93 -14 15 -23 27 -19 27 3 0 -10 15 -30 34 -19 19 -35 39 -35 44 0 6
-3 12 -7 14 -10 4 -68 81 -68 89 0 4 -15 19 -33 35 -17 16 -32 34 -32 41 0 7
-5 13 -12 13 -6 0 -8 3 -5 7 4 4 -4 18 -17 32 -14 14 -26 32 -28 40 -3 16 -30
52 -70 93 -14 15 -24 28 -20 28 3 0 -6 13 -21 28 -15 16 -24 31 -20 35 3 4 1
7 -5 7 -7 0 -12 8 -12 18 0 11 -9 27 -21 38 -12 10 -28 32 -36 49 -9 16 -19
32 -23 35 -4 3 -15 21 -25 40 -10 19 -26 41 -37 48 -10 7 -16 18 -13 23 4 5 1
9 -5 9 -6 0 -8 5 -5 10 3 6 2 10 -2 10 -5 0 -22 26 -38 58 -16 31 -35 63 -42
70 -7 8 -11 17 -8 22 3 5 -8 22 -25 38 -20 20 -30 41 -30 59 0 19 -9 38 -25
53 -14 13 -25 31 -25 41 0 10 -11 29 -25 43 -16 16 -25 36 -25 56 0 19 -6 33
-16 37 -17 6 -39 50 -35 70 1 7 -3 13 -9 13 -7 0 -10 6 -8 12 3 7 -5 20 -17
30 -14 11 -21 26 -19 47 1 19 -5 36 -17 47 -10 9 -19 23 -19 31 0 7 -4 13 -9
13 -5 0 -8 8 -6 18 3 20 -20 69 -35 74 -6 2 -13 19 -16 38 -3 19 -17 53 -30
76 -13 22 -24 52 -24 65 0 14 -11 40 -25 59 -15 20 -25 47 -25 66 0 18 -7 39
-15 47 -8 8 -12 17 -9 19 2 3 -2 11 -11 18 -8 7 -15 27 -15 45 0 18 -7 38 -15
45 -8 7 -12 16 -10 21 3 4 -2 12 -10 17 -11 5 -17 25 -18 58 -1 27 -4 51 -7
54 -19 19 -49 91 -45 109 2 13 -6 44 -19 70 -13 25 -21 52 -19 59 3 6 0 12 -6
12 -6 0 -9 20 -7 50 2 28 -1 50 -5 50 -5 0 -9 9 -9 20 0 11 -7 23 -16 27 -8 3
-13 12 -10 19 3 8 2 14 -3 14 -5 0 -8 25 -7 55 0 30 -2 55 -6 55 -5 0 -8 6 -8
14 0 8 -7 17 -16 20 -10 4 -14 14 -11 26 3 11 1 20 -4 20 -5 0 -9 35 -9 79 0
47 -6 93 -15 115 -8 20 -15 37 -14 38 0 3 -3 16 -16 53 -3 11 -8 51 -9 89 -2
37 -8 71 -13 75 -6 3 -9 16 -8 29 1 12 -2 22 -6 22 -12 0 -19 69 -20 195 -1
66 -5 125 -9 130 -4 6 -6 25 -5 43 1 17 -2 32 -7 32 -5 0 -7 13 -5 29 3 17 1
31 -5 33 -14 5 -17 97 -17 463 1 377 4 542 15 635 4 36 7 69 5 74 -1 4 3 13 8
20 5 6 8 21 7 31 -2 11 0 25 4 30 4 6 8 69 7 140 0 129 4 167 25 215 18 41 20
50 28 173 5 65 13 124 19 131 7 8 11 18 10 22 -1 5 3 22 9 37 7 16 12 62 12
104 0 48 5 84 15 101 28 50 37 87 41 157 3 85 5 95 16 95 4 0 8 7 8 16 0 9 5
12 12 8 7 -4 8 -3 4 4 -4 7 -4 17 0 24 4 6 8 34 9 62 2 53 18 106 33 106 10 0
13 17 14 73 1 20 5 37 9 37 5 0 9 5 9 10 0 6 8 23 18 37 9 15 18 45 18 68 2
46 19 95 34 95 5 0 9 3 9 8 -1 4 0 10 1 15 6 18 8 29 9 61 0 19 7 41 14 48 25
24 37 56 37 94 0 25 9 49 27 72 17 23 26 46 25 68 -1 18 5 37 12 41 19 11 43
64 41 90 -1 12 6 31 16 42 11 11 19 25 19 31 0 5 4 10 9 10 6 0 8 9 6 20 -2
12 6 30 20 44 13 13 21 27 18 30 -4 3 -2 6 4 6 5 0 9 12 8 28 -1 16 10 45 27
70 16 23 27 46 24 51 -6 8 31 63 46 69 5 2 8 17 8 33 0 19 10 39 25 55 14 14
25 36 25 50 0 14 11 36 25 50 14 14 25 33 25 42 1 18 29 73 30 57 0 -11 30 43
33 60 1 6 10 17 19 26 10 9 15 19 11 23 -3 3 -1 6 5 6 6 0 9 11 6 25 -2 14 0
25 5 25 5 0 11 8 15 18 5 16 42 71 66 99 5 7 12 20 13 30 7 32 20 58 39 74 10
9 18 24 18 33 0 9 9 24 21 34 11 9 29 34 40 55 11 21 26 40 34 43 7 3 12 11 9
17 -2 7 8 25 23 42 16 16 28 33 28 36 0 4 13 19 29 34 15 14 26 29 23 32 -3 3
5 17 18 31 13 14 22 29 19 34 -3 4 0 8 5 8 6 0 11 7 11 15 0 8 9 20 20 27 11
7 20 17 20 22 0 4 14 24 30 43 17 18 30 39 30 45 0 6 10 21 23 33 35 36 46 52
40 58 -3 4 6 9 20 13 15 3 26 9 25 13 -3 13 16 47 34 59 10 7 16 18 13 23 -4
5 -2 9 4 9 5 0 20 17 32 37 13 21 56 72 96 113 40 41 73 78 73 82 0 3 21 29
48 57 83 88 152 165 168 189 8 12 19 22 25 22 5 0 22 14 37 32 15 17 55 60 90
96 34 36 62 69 62 74 0 4 7 8 15 8 15 0 29 12 163 140 46 44 86 80 89 80 2 0
39 31 81 70 43 38 83 70 90 70 6 0 12 5 12 12 0 6 3 9 6 6 3 -4 22 5 41 18 20
13 39 24 42 24 3 0 11 10 16 23 6 12 16 21 23 20 7 -2 12 2 12 7 0 6 7 10 15
10 8 0 15 4 15 9 0 9 11 14 45 23 5 2 21 15 36 31 14 15 31 27 36 27 5 0 15
11 21 24 7 17 22 25 51 30 25 4 44 13 51 26 6 11 17 20 25 20 8 0 20 12 27 27
7 14 22 27 33 28 23 2 131 69 137 85 2 6 16 13 32 14 15 2 39 15 52 29 13 14
33 29 45 32 13 4 32 16 43 26 11 11 26 17 32 15 6 -2 24 9 40 25 15 16 37 29
49 29 12 0 32 11 45 25 13 14 34 25 48 25 13 0 40 14 59 30 19 17 38 28 44 25
5 -4 25 7 45 23 20 16 43 28 53 25 9 -2 25 5 35 16 11 12 25 21 33 21 7 0 13
4 13 9 0 5 12 8 27 6 18 -2 34 6 52 24 19 19 37 26 67 27 25 1 56 11 80 27 21
14 52 29 67 33 16 3 31 13 34 20 3 8 9 12 13 9 5 -3 11 -1 15 5 3 5 26 10 51
10 24 0 44 4 44 8 0 15 58 42 89 42 19 0 34 6 37 15 9 23 55 41 102 39 23 -1
42 2 42 7 0 13 74 48 96 45 16 -2 62 17 99 43 6 4 35 7 65 6 42 0 59 5 73 19
9 10 17 16 17 12 0 -3 13 0 28 8 16 8 43 14 61 14 19 -1 44 8 64 23 26 20 49
25 127 31 115 8 120 9 120 20 0 4 3 7 8 6 4 -1 17 3 28 10 12 6 51 12 88 13
37 1 69 6 72 10 2 4 11 6 19 2 8 -3 15 -1 15 5 0 17 91 36 169 35 42 0 82 4
88 9 7 6 19 8 28 5 8 -4 17 -2 21 4 3 6 12 8 20 5 7 -3 16 -1 19 4 4 6 19 10
35 10 16 0 31 4 34 8 3 5 55 8 116 7 60 -1 110 1 110 5 0 4 12 8 28 8 15 1 52
6 82 12 30 6 82 12 115 14 33 2 60 5 60 6 0 5 671 6 680 1 6 -3 37 -7 70 -8
73 -2 174 -13 195 -20 26 -9 81 -14 207 -16 68 -1 123 -5 123 -8 0 -4 19 -9
41 -12 23 -3 45 -9 48 -14 8 -10 45 -15 151 -18 80 -2 121 -11 164 -36 10 -6
54 -14 97 -19 43 -4 85 -13 92 -19 8 -6 17 -8 20 -4 4 3 7 1 7 -6 0 -8 8 -11
20 -8 11 3 20 2 20 -3 0 -4 37 -10 83 -11 61 -3 88 -8 100 -21 17 -17 43 -24
108 -32 20 -3 52 -16 72 -29 26 -18 46 -23 76 -21 23 2 41 -1 41 -7 0 -5 7 -9
15 -9 8 0 15 -4 15 -9 0 -8 38 -23 65 -26 25 -3 85 -30 85 -39 0 -5 3 -6 7 -3
3 4 12 2 20 -4 7 -6 13 -9 13 -6 0 13 76 -17 89 -35 9 -13 21 -18 37 -15 14 2
31 -3 43 -15 12 -10 22 -18 23 -17 2 0 14 -4 28 -9 14 -6 42 -13 63 -17 20 -3
37 -10 37 -16 0 -13 60 -38 77 -32 7 3 13 1 13 -4 0 -13 72 -47 94 -44 10 1
30 -9 45 -23 15 -14 37 -27 50 -29 13 -2 31 -13 40 -24 9 -11 22 -18 29 -15 6
2 12 -1 12 -7 0 -5 12 -9 28 -7 19 2 35 -6 55 -27 16 -16 34 -27 42 -23 8 3
27 -8 44 -24 16 -17 40 -30 53 -30 13 0 34 -9 48 -20 40 -32 100 -70 110 -70
6 0 10 -4 10 -9 0 -4 11 -6 25 -3 15 2 25 0 25 -7 0 -7 5 -9 10 -6 6 3 10 2
10 -3 0 -18 64 -35 135 -36 68 -1 125 15 125 35 0 6 4 8 9 4 5 -3 12 -1 16 5
3 5 15 10 27 10 11 0 22 8 25 20 3 11 9 20 13 20 13 0 90 77 90 89 0 6 4 11
10 11 5 0 9 3 8 8 -1 4 6 20 16 35 28 41 29 177 2 235 -11 23 -24 42 -28 42
-4 0 -8 10 -8 23 0 13 -3 27 -7 31 -5 4 -8 11 -8 15 0 17 -116 142 -126 135
-4 -2 -19 6 -31 18 -13 13 -25 23 -28 24 -13 2 -48 17 -70 29 -14 8 -36 20
-50 27 -14 7 -28 17 -32 23 -4 5 -8 6 -8 2 0 -4 -12 3 -26 17 -15 13 -33 22
-42 19 -8 -4 -20 1 -26 9 -14 19 -72 49 -80 41 -3 -4 -6 -1 -6 5 0 7 -6 12
-13 12 -8 0 -21 8 -31 19 -9 10 -27 17 -39 17 -12 -1 -34 6 -49 16 -14 10 -31
18 -37 18 -6 0 -11 5 -11 10 0 6 -7 10 -16 10 -17 0 -75 29 -85 43 -3 5 -9 8
-13 7 -18 -4 -66 13 -82 31 -9 10 -28 19 -41 19 -12 0 -23 5 -23 11 0 5 -4 7
-10 4 -5 -3 -10 -1 -10 5 0 6 -4 8 -10 5 -5 -3 -10 -2 -10 4 0 11 -17 17 -70
26 -19 3 -37 9 -40 14 -10 14 -75 35 -102 32 -17 -1 -28 2 -28 9 0 7 -7 10
-14 7 -9 -4 -17 2 -21 14 -4 10 -10 17 -15 14 -5 -3 -11 -1 -14 4 -3 5 -19 7
-36 6 -16 -1 -30 0 -30 4 0 5 -48 29 -70 35 -3 1 -10 4 -16 8 -6 4 -21 6 -32
3 -12 -2 -36 6 -54 19 -19 12 -39 21 -46 18 -7 -2 -12 1 -12 7 0 6 -16 11 -35
11 -20 0 -54 9 -76 20 -22 12 -44 18 -49 15 -6 -3 -10 -2 -10 4 0 5 -20 9 -45
9 -25 0 -52 5 -59 11 -7 6 -16 8 -19 4 -4 -3 -7 -2 -7 4 0 15 -53 35 -95 35
-19 0 -38 4 -41 9 -3 5 -9 7 -14 4 -4 -3 -13 2 -20 10 -7 8 -21 15 -31 15 -11
0 -19 4 -19 8 0 4 -31 7 -70 5 -40 -2 -70 1 -70 6 0 5 -11 8 -25 5 -14 -2 -25
0 -25 5 0 10 -47 25 -67 22 -7 -1 -13 2 -13 6 0 4 -35 7 -77 7 -43 -1 -82 2
-88 6 -14 10 -108 35 -119 32 -4 -2 -13 1 -20 6 -6 5 -62 8 -123 8 -62 -1
-113 2 -113 5 0 7 -88 24 -107 20 -7 -1 -13 2 -13 6 0 5 -21 10 -47 11 -93 5
-1413 9 -1417 4z"/>
<path d="M15456 15721 c-4 -5 -22 -8 -41 -7 -19 2 -35 0 -35 -4 0 -4 -8 -7
-17 -7 -48 0 -64 -4 -81 -21 -10 -10 -24 -16 -30 -14 -7 2 -12 -2 -12 -8 0 -6
-10 -10 -22 -9 -13 1 -32 -2 -43 -6 -46 -19 -233 -197 -227 -216 1 -5 -2 -9
-8 -9 -5 0 -10 -8 -10 -17 0 -10 -14 -35 -30 -56 -16 -22 -26 -45 -23 -53 3
-8 1 -20 -5 -27 -6 -6 -11 -15 -12 -19 0 -4 -8 -25 -17 -45 -11 -27 -16 -74
-17 -158 -1 -102 2 -128 21 -174 12 -30 20 -58 17 -63 -3 -4 -1 -8 4 -8 5 0 9
-16 10 -37 1 -21 12 -52 27 -73 14 -20 25 -41 25 -48 0 -7 5 -12 11 -12 5 0 7
-4 4 -10 -3 -5 -1 -10 5 -10 6 0 8 -4 5 -10 -3 -5 1 -10 9 -10 9 0 16 -5 16
-11 0 -7 15 -35 34 -64 38 -56 40 -79 10 -104 -26 -22 -80 -94 -76 -103 1 -5
-3 -8 -8 -8 -6 0 -10 -9 -10 -19 0 -11 -5 -23 -10 -26 -6 -4 -8 -11 -5 -16 4
-5 2 -9 -4 -9 -12 0 -36 -69 -32 -93 2 -18 -47 -106 -81 -143 -10 -12 -20 -33
-22 -46 -1 -14 -13 -40 -27 -59 -24 -34 -25 -37 -28 -62 0 -7 -12 -24 -24 -37
-13 -14 -27 -37 -30 -50 -3 -14 -15 -35 -27 -47 -11 -12 -20 -28 -20 -36 0 -7
-11 -28 -25 -47 -14 -19 -25 -38 -25 -43 0 -4 -13 -27 -29 -50 -15 -23 -26
-47 -24 -53 2 -6 -6 -21 -17 -34 -11 -13 -20 -27 -20 -32 0 -11 -90 -150 -103
-159 -5 -3 -9 -9 -8 -12 1 -16 -30 -77 -40 -77 -5 0 -9 -6 -7 -12 3 -17 -17
-52 -47 -82 -14 -14 -25 -32 -25 -40 0 -8 -22 -39 -50 -69 -27 -30 -47 -57
-44 -60 3 -3 -2 -17 -11 -31 -33 -49 -35 -91 -8 -130 13 -20 21 -36 18 -36 -3
0 0 -6 7 -14 7 -8 16 -12 21 -9 4 2 7 1 7 -4 0 -4 15 -18 33 -30 35 -24 127
-33 127 -13 0 6 5 9 12 8 6 -2 26 19 44 46 18 27 39 53 46 57 7 5 13 12 13 16
1 15 17 56 26 67 25 30 79 117 79 126 0 6 11 23 25 38 14 15 25 37 25 49 0 13
10 29 24 38 21 14 34 38 34 62 0 3 7 10 16 15 9 5 16 16 16 23 0 8 5 15 11 15
5 0 7 4 4 10 -7 11 25 70 37 70 4 0 7 3 7 8 -1 4 0 10 1 15 1 4 3 10 5 15 8
29 26 62 34 62 6 0 8 7 5 15 -4 8 -2 15 4 15 5 0 13 12 17 28 4 15 15 35 26
45 10 10 19 24 19 32 0 9 11 25 25 37 14 12 25 28 25 35 0 7 5 13 11 13 5 0 7
5 4 10 -3 6 -2 10 3 10 11 0 38 60 34 74 -1 4 3 14 9 22 6 8 8 14 3 14 -5 0
-1 5 9 11 9 5 17 17 17 24 0 8 4 15 10 15 5 0 7 6 4 14 -3 8 0 17 5 21 6 3 9
11 6 16 -4 5 -2 9 2 9 5 0 17 14 26 30 10 17 16 30 12 30 -3 0 7 14 22 31 15
17 28 36 28 42 0 15 37 77 46 77 4 0 7 16 7 35 0 20 8 48 18 63 10 15 19 29
19 32 0 3 3 10 6 15 3 6 7 32 8 58 2 39 8 54 32 78 34 33 68 44 101 33 13 -4
26 -7 31 -6 4 1 7 -3 7 -9 0 -5 4 -8 9 -4 5 3 12 1 15 -4 8 -13 203 -14 211
-1 3 6 10 8 15 5 5 -3 11 -1 15 5 4 6 11 8 16 5 5 -4 9 -2 9 3 0 12 35 23 82
25 24 2 43 10 57 25 11 13 23 23 28 22 11 -1 77 33 81 43 2 4 8 5 12 2 9 -5
100 83 100 96 0 4 13 12 29 19 20 8 28 18 26 30 -2 10 9 39 25 64 16 25 28 53
28 63 -2 20 29 73 42 73 5 0 8 77 8 170 -1 97 -5 170 -10 170 -5 0 -6 5 -3 10
3 6 0 13 -9 16 -16 6 -30 53 -29 99 1 17 -7 39 -17 50 -10 11 -25 38 -35 60
-9 22 -26 50 -37 62 -12 13 -18 23 -14 23 4 0 -23 30 -60 66 -60 59 -91 80
-117 82 -5 0 -17 10 -26 21 -11 13 -30 21 -50 21 -17 0 -31 5 -31 11 0 5 -4 8
-9 5 -5 -3 -14 1 -21 9 -7 8 -19 15 -26 15 -8 0 -14 4 -14 8 0 5 -15 8 -32 9
-18 0 -49 3 -68 8 -61 13 -147 17 -154 6z"/>
<path d="M7210 15379 c-31 -3 -66 -11 -78 -18 -12 -6 -22 -9 -22 -5 0 3 -6 2
-13 -4 -7 -6 -22 -9 -32 -8 -23 4 -95 -30 -95 -44 0 -6 -8 -10 -19 -10 -10 0
-30 -11 -45 -25 -15 -14 -33 -25 -39 -25 -23 0 -180 -184 -182 -212 0 -4 -8
-16 -17 -27 -24 -28 -35 -51 -42 -92 -4 -21 -13 -43 -22 -50 -8 -7 -13 -18
-10 -25 3 -7 1 -16 -5 -19 -5 -4 -9 -70 -9 -158 1 -142 3 -155 26 -201 14 -26
26 -61 26 -77 1 -16 5 -29 10 -29 5 0 7 -4 4 -9 -3 -4 6 -19 19 -31 14 -13 25
-30 25 -37 0 -8 6 -21 13 -28 29 -33 36 -43 31 -48 -3 -2 14 -20 38 -38 24
-19 49 -42 56 -51 7 -10 20 -18 28 -18 8 0 14 -4 14 -10 0 -5 6 -10 14 -10 8
0 16 -4 18 -9 2 -5 12 -11 23 -13 11 -1 28 -12 38 -22 15 -17 30 -22 74 -25 6
-1 18 -7 25 -14 7 -7 28 -19 47 -25 42 -15 317 -16 326 -2 4 6 11 8 16 5 5 -4
9 -2 9 3 0 9 73 36 96 37 7 0 25 12 41 26 16 14 34 24 41 21 7 -2 12 1 12 7 0
6 6 11 14 11 8 0 21 8 28 18 7 9 20 18 28 20 8 2 23 13 32 25 10 12 18 18 18
14 0 -10 37 35 65 78 11 17 18 33 17 38 -1 4 3 7 8 7 6 0 10 6 10 14 0 7 13
30 29 50 17 21 27 44 24 52 -3 8 -1 20 5 27 6 6 11 15 11 20 0 4 8 21 17 39
13 25 16 64 16 207 0 116 -4 177 -11 179 -6 2 -11 10 -11 18 0 8 -4 14 -10 14
-5 0 -9 3 -8 8 0 4 -1 14 -5 22 -3 8 -8 27 -11 41 -3 14 -15 36 -26 49 -11 13
-20 31 -20 40 0 9 -42 57 -93 106 -122 116 -143 134 -156 134 -6 0 -11 5 -11
11 0 5 -4 8 -9 5 -5 -3 -14 1 -21 9 -7 8 -21 15 -31 15 -11 0 -19 3 -19 8 0 4
-21 8 -48 9 -50 1 -71 5 -87 15 -31 19 -106 26 -185 17z"/>
<path d="M10108 15377 c-27 -5 -48 -13 -48 -17 0 -5 -11 -7 -25 -4 -14 2 -25
0 -25 -5 0 -5 -17 -9 -37 -9 -43 1 -87 -14 -100 -34 -4 -7 -19 -19 -33 -26
-61 -31 -88 -48 -110 -69 -13 -13 -28 -23 -32 -23 -5 0 -7 -4 -4 -9 3 -5 -1
-11 -9 -15 -8 -3 -15 -12 -15 -20 0 -8 -10 -22 -22 -31 -13 -8 -22 -19 -20
-23 1 -4 -8 -20 -20 -37 -13 -16 -22 -33 -20 -37 1 -5 -2 -8 -7 -8 -5 0 -11
-18 -15 -40 -3 -22 -10 -40 -15 -40 -12 0 -32 -52 -36 -92 -3 -29 -9 -62 -15
-78 -1 -3 -2 -8 -1 -12 0 -5 -3 -8 -8 -8 -11 0 -19 -169 -8 -173 4 -1 9 -12
11 -24 3 -12 9 -31 15 -42 6 -11 10 -38 8 -60 -2 -23 0 -41 5 -41 4 0 8 -7 8
-15 0 -8 7 -15 15 -15 8 0 18 -15 24 -35 5 -19 19 -47 30 -61 12 -15 21 -31
21 -36 0 -10 119 -133 129 -133 4 0 18 -10 31 -23 14 -13 44 -32 67 -43 23
-10 44 -23 48 -28 3 -5 18 -9 33 -9 15 1 46 -9 70 -21 23 -12 42 -18 42 -14 0
4 5 2 12 -5 15 -15 288 -17 288 -2 0 5 7 7 15 4 8 -4 15 -1 15 5 0 14 45 33
80 35 14 0 40 12 58 26 18 14 40 25 47 25 8 0 37 21 64 48 28 26 54 47 58 48
5 0 12 7 16 15 4 8 13 14 18 14 6 0 17 7 25 15 9 8 13 15 9 15 -9 0 28 63 45
77 8 6 16 16 16 22 1 6 2 17 3 24 0 7 12 24 25 38 16 17 24 38 24 61 0 20 6
46 13 59 7 13 12 27 11 32 -1 4 3 7 8 7 6 0 10 6 9 13 -1 6 1 20 5 29 4 9 5
56 3 105 -6 105 -8 113 -19 113 -12 0 -31 51 -29 78 3 26 -70 182 -94 202 -8
7 -12 16 -9 21 3 5 -9 22 -26 39 -17 16 -28 30 -25 30 4 0 0 7 -9 15 -8 8 -18
15 -22 15 -4 0 -16 9 -28 21 -36 35 -98 79 -113 79 -7 0 -31 12 -52 26 -25 16
-56 26 -87 28 -27 2 -49 4 -49 6 0 2 -26 9 -50 12 -11 2 -22 6 -25 10 -9 11
-110 14 -162 5z"/>
<path d="M5938 13314 c-4 -3 -12 -7 -20 -8 -7 -1 -23 -7 -35 -14 -12 -7 -26
-11 -31 -10 -6 2 -30 -18 -54 -44 -38 -39 -44 -52 -43 -85 1 -21 -1 -42 -4
-48 -8 -14 -10 -108 -3 -120 4 -5 7 -30 7 -55 1 -28 11 -64 28 -97 15 -29 26
-65 25 -80 -2 -31 12 -62 36 -83 9 -7 16 -23 16 -35 0 -12 9 -33 19 -47 11
-13 24 -43 30 -66 7 -23 22 -52 34 -64 12 -13 24 -32 25 -43 2 -11 10 -23 17
-28 7 -4 16 -20 20 -36 3 -15 18 -40 34 -55 16 -15 27 -36 26 -48 -1 -13 10
-32 26 -46 15 -12 31 -33 35 -45 4 -12 15 -28 25 -35 11 -7 19 -19 19 -27 0
-8 11 -26 25 -41 14 -15 25 -33 25 -40 0 -7 9 -15 19 -19 11 -3 27 -18 37 -33
10 -15 36 -44 58 -65 23 -20 41 -41 41 -46 0 -5 26 -34 58 -65 31 -31 57 -60
57 -66 0 -5 8 -14 19 -19 10 -6 43 -34 73 -63 29 -29 69 -64 87 -78 19 -14 55
-42 80 -62 25 -21 47 -36 49 -34 4 4 13 -3 86 -66 17 -15 43 -33 59 -39 15 -6
27 -16 27 -21 0 -5 5 -6 10 -3 6 3 10 1 10 -5 0 -7 6 -10 14 -7 8 3 24 -4 37
-16 13 -12 27 -21 31 -19 5 1 8 -2 8 -8 0 -5 12 -10 28 -10 17 0 34 -9 46 -25
10 -14 26 -25 35 -25 10 0 35 -13 58 -30 22 -16 43 -27 46 -23 4 3 13 0 22 -7
8 -7 15 -9 15 -4 0 5 5 1 11 -8 5 -10 17 -18 24 -18 8 0 15 -5 15 -11 0 -5 4
-8 9 -5 5 3 35 -7 68 -23 32 -16 71 -29 87 -29 19 0 37 -8 48 -22 10 -12 18
-19 18 -15 0 4 6 2 14 -4 8 -7 20 -11 28 -10 19 3 72 -12 79 -23 3 -5 15 -11
25 -13 10 -2 21 -5 24 -6 3 -1 19 -3 35 -4 48 -3 95 -16 95 -26 0 -6 4 -8 9
-4 5 3 12 1 16 -5 4 -6 10 -8 15 -5 5 3 11 1 15 -5 3 -5 42 -10 86 -10 49 0
79 -4 79 -11 0 -6 9 -8 20 -4 11 3 20 2 20 -3 0 -6 8 -9 18 -7 9 1 22 -1 27
-5 6 -4 37 -11 70 -15 75 -9 833 -11 842 -2 3 4 17 7 29 7 13 0 25 4 28 9 4 5
14 8 24 6 9 -1 29 4 44 11 18 9 62 14 128 14 64 0 100 4 100 11 0 5 5 7 11 3
6 -3 14 -2 18 4 4 7 16 13 26 15 11 1 25 6 32 10 6 4 31 8 55 9 43 1 74 13 93
35 5 6 27 13 47 16 20 3 52 15 70 28 19 14 48 24 68 25 36 0 110 31 110 46 0
4 14 6 30 4 17 -2 30 1 30 5 0 5 7 9 15 9 7 0 18 8 24 18 5 9 11 16 13 14 8
-9 66 13 91 35 16 12 37 23 47 23 10 0 32 11 48 25 17 14 38 25 47 25 9 0 35
16 57 35 23 19 44 32 49 29 4 -2 11 1 16 8 4 7 21 20 37 28 16 8 29 19 27 23
-1 5 16 21 37 37 22 16 43 33 47 39 3 6 15 11 26 11 11 0 22 7 25 15 4 8 11
15 18 15 6 0 39 27 74 60 34 33 65 60 68 60 2 0 18 16 35 35 17 19 34 33 38
30 7 -4 41 30 41 42 0 3 47 54 104 112 151 153 226 238 226 256 0 8 4 15 9 15
5 0 14 14 21 31 7 17 24 38 38 47 13 9 33 35 43 59 10 24 23 43 29 43 6 0 9 4
6 9 -3 4 6 19 20 32 14 13 32 39 39 57 8 17 19 32 25 32 6 0 9 4 5 9 -3 5 -1
12 5 16 5 3 10 15 10 25 0 10 11 31 25 46 14 15 25 38 25 51 0 26 15 59 37 81
7 7 13 33 13 56 0 32 6 50 25 70 14 15 25 30 26 34 0 4 2 29 4 56 2 27 8 52
12 55 14 9 26 43 24 64 -1 9 2 17 7 17 8 0 8 21 -1 71 -2 10 -9 25 -17 34 -14
17 -17 25 -22 60 -6 38 -103 115 -153 121 -5 0 -22 7 -37 14 -23 11 -34 10
-75 -4 -26 -10 -59 -20 -73 -23 -28 -7 -80 -52 -80 -69 0 -6 -11 -20 -25 -30
-15 -11 -25 -29 -25 -43 0 -14 -11 -42 -26 -62 -14 -20 -26 -47 -26 -60 -1
-13 -11 -34 -22 -47 -11 -12 -21 -29 -23 -37 -11 -53 -23 -85 -33 -85 -7 0
-15 -19 -25 -56 -1 -6 -15 -23 -29 -39 -14 -15 -24 -30 -21 -33 7 -7 -24 -55
-42 -65 -7 -4 -13 -16 -13 -26 0 -10 -9 -26 -20 -36 -11 -10 -22 -27 -26 -38
-3 -11 -16 -31 -28 -43 -30 -33 -42 -48 -44 -57 -2 -12 -55 -81 -77 -99 -11
-10 -17 -17 -12 -18 4 0 -46 -53 -111 -117 -129 -128 -150 -147 -199 -182 -18
-12 -56 -42 -85 -67 -28 -24 -59 -44 -68 -44 -9 0 -27 -11 -40 -25 -12 -13
-25 -24 -29 -23 -20 2 -31 -4 -31 -17 0 -8 -7 -15 -15 -15 -8 0 -15 -5 -15
-11 0 -5 -4 -7 -10 -4 -11 7 -70 -25 -70 -37 0 -4 -5 -8 -11 -8 -6 0 -29 -12
-52 -27 -23 -16 -48 -29 -56 -31 -7 -1 -29 -14 -47 -29 -19 -14 -37 -23 -40
-20 -4 3 -32 -8 -63 -24 -36 -19 -66 -29 -83 -26 -16 2 -28 1 -28 -3 0 -9 -88
-50 -108 -50 -9 0 -31 -9 -48 -19 -36 -22 -71 -30 -137 -33 -26 -1 -50 -5 -53
-10 -3 -4 -10 -6 -15 -2 -5 3 -16 1 -23 -5 -19 -16 -125 -37 -183 -36 -29 1
-53 -2 -53 -6 0 -3 -31 -6 -70 -4 -38 1 -70 -2 -70 -6 0 -4 -101 -8 -225 -8
-124 0 -225 3 -225 7 0 4 -28 8 -62 10 -248 8 -318 15 -318 34 0 5 -4 7 -9 3
-5 -3 -12 -1 -16 5 -4 6 -10 8 -15 5 -5 -3 -11 -1 -14 4 -3 5 -30 9 -58 9 -29
1 -54 6 -56 11 -2 6 -10 11 -18 11 -8 0 -14 4 -14 10 0 5 -17 12 -37 15 -21 4
-49 11 -63 17 -14 5 -26 9 -28 9 -1 -1 -10 5 -18 14 -9 8 -29 15 -45 15 -16 0
-29 5 -29 11 0 5 -4 8 -9 5 -5 -3 -14 1 -21 9 -7 8 -19 15 -26 15 -8 0 -14 4
-14 9 0 4 -11 7 -25 6 -14 -2 -25 1 -25 6 0 6 -4 7 -10 4 -5 -3 -10 -1 -10 4
0 12 -68 43 -80 36 -4 -2 -19 6 -32 18 -14 13 -30 21 -36 19 -7 -2 -12 1 -12
8 0 6 -6 10 -12 9 -17 -3 -68 22 -68 33 0 4 -6 8 -14 8 -8 0 -30 14 -48 30
-18 17 -43 30 -55 30 -13 0 -29 11 -39 25 -9 14 -21 25 -27 25 -5 0 -29 17
-52 38 -61 54 -85 73 -85 65 0 -4 -15 10 -34 30 -18 20 -39 37 -45 37 -6 0
-11 7 -11 17 0 9 -3 14 -6 10 -7 -7 -239 229 -239 243 0 6 -43 67 -65 92 -8
10 -25 29 -37 42 -13 14 -23 34 -23 44 0 10 -11 29 -25 42 -14 13 -25 30 -25
38 0 8 -11 30 -25 48 -14 18 -25 40 -25 48 0 9 -4 16 -10 16 -5 0 -10 5 -10
11 0 6 -9 24 -20 39 -11 16 -21 40 -22 54 -1 14 -6 26 -10 26 -12 0 -31 43
-33 73 -1 16 -6 32 -11 35 -21 14 -44 58 -44 83 0 15 -7 32 -15 39 -8 7 -13
16 -10 20 3 4 -2 10 -10 14 -8 3 -15 18 -15 34 0 21 -7 32 -27 43 -15 8 -38
24 -51 37 -23 20 -46 27 -79 23 -7 -1 -13 3 -13 8 0 6 -6 8 -13 5 -7 -2 -30 2
-50 11 -41 17 -42 17 -49 9z"/>
<path d="M13412 12598 c-7 -7 -12 -9 -12 -5 0 4 -18 -2 -40 -13 -21 -11 -48
-20 -60 -20 -11 0 -20 -5 -20 -11 0 -5 -4 -8 -9 -5 -5 3 -14 -1 -21 -9 -7 -8
-19 -15 -26 -15 -8 0 -14 -5 -14 -12 0 -6 -3 -8 -7 -5 -3 4 -19 -7 -35 -23
-15 -16 -28 -27 -28 -23 0 7 -92 -87 -141 -144 -15 -17 -26 -43 -26 -58 0 -15
-4 -30 -9 -34 -20 -14 -36 -58 -45 -120 -5 -36 -14 -68 -19 -69 -6 -2 -8 -8
-4 -13 3 -5 1 -9 -4 -9 -14 0 -13 -97 0 -145 14 -49 13 -47 21 -65 3 -8 7 -41
10 -72 2 -36 10 -65 21 -77 9 -10 20 -29 24 -42 14 -47 67 -128 91 -139 13 -6
21 -13 18 -16 -7 -7 64 -80 75 -77 4 2 17 -10 28 -25 12 -15 25 -26 28 -25 14
3 72 -27 72 -37 0 -6 4 -9 9 -5 5 3 12 1 16 -5 3 -5 24 -10 46 -10 21 0 39 -4
39 -9 0 -5 17 -17 37 -26 31 -15 63 -18 182 -17 132 2 149 4 174 23 16 12 48
24 71 27 55 7 142 64 243 160 29 27 56 46 59 43 4 -3 4 2 1 12 -4 9 -2 17 3
17 6 0 10 6 10 13 0 7 9 20 20 30 11 9 20 24 20 34 0 9 10 27 22 40 14 15 24
44 30 84 4 34 13 69 20 76 8 10 8 17 1 21 -6 4 -11 32 -12 62 -5 160 -16 241
-33 251 -10 6 -21 27 -24 49 -4 22 -11 40 -17 40 -6 0 -8 3 -4 6 3 4 -5 22
-20 40 -14 19 -22 34 -19 34 4 0 -7 13 -23 29 -16 16 -28 31 -26 33 14 14
-147 168 -175 168 -5 0 -21 11 -36 25 -15 14 -36 25 -48 25 -12 0 -43 12 -71
25 -46 23 -61 25 -200 25 -104 0 -155 -4 -163 -12z"/>
<path d="M14631 12167 c-6 -6 -11 -17 -11 -24 0 -6 -8 -17 -17 -22 -10 -6 -14
-11 -9 -11 5 0 3 -7 -4 -15 -7 -8 -10 -21 -7 -30 4 -8 2 -17 -4 -20 -5 -4 -7
-10 -4 -15 5 -8 12 -51 16 -100 1 -8 5 -20 10 -26 4 -5 6 -30 3 -55 -3 -24 -6
-54 -6 -66 -1 -13 -6 -23 -11 -23 -5 0 -7 -9 -4 -20 3 -11 1 -23 -4 -26 -5 -3
-9 -36 -9 -73 0 -55 -4 -71 -20 -86 -11 -10 -20 -24 -20 -32 0 -7 -4 -13 -10
-13 -5 0 -7 -7 -4 -15 7 -18 -22 -84 -40 -91 -6 -2 -12 -14 -13 -25 -1 -11
-13 -29 -28 -40 -14 -12 -23 -24 -21 -28 7 -11 -258 -244 -294 -259 -8 -3 -23
-14 -32 -25 -10 -11 -24 -17 -32 -14 -8 3 -26 -6 -41 -21 -15 -15 -39 -27 -54
-28 -35 -1 -101 -23 -101 -34 0 -11 -40 -18 -150 -25 -47 -3 -101 -7 -120 -10
-19 -3 -53 -7 -75 -8 -43 -4 -91 -23 -115 -47 -14 -14 -16 -317 -15 -2940 0
-2796 0 -2925 18 -2943 14 -14 22 -15 37 -7 11 6 20 8 20 4 0 -12 68 65 74 84
4 10 43 54 89 97 45 42 100 95 123 116 23 22 44 39 48 39 4 0 56 49 116 110
60 60 114 110 120 110 5 0 10 4 10 9 0 5 65 75 145 155 81 80 143 146 140 146
-3 0 25 33 63 73 124 130 182 194 182 201 0 5 11 17 25 28 14 11 25 24 25 30
0 6 8 18 19 27 10 9 21 25 24 36 4 11 19 33 34 49 31 34 32 39 39 201 6 141 6
118 2 540 -2 202 0 333 6 337 6 4 6 15 0 30 -6 14 -8 173 -5 423 9 880 11
1718 4 1729 -9 12 -6 420 3 519 3 31 2 57 -3 57 -4 0 -6 309 -4 688 5 1076 6
1003 -12 1252 -1 25 -9 56 -17 70 -8 14 -14 27 -13 30 1 3 -11 13 -27 22 -20
12 -31 13 -39 5z"/>
<path d="M12084 10891 c-3 -3 -9 -6 -12 -6 -4 -1 -17 -6 -29 -13 -12 -6 -42
-13 -68 -14 -28 -1 -56 -9 -70 -20 -13 -10 -28 -18 -34 -18 -6 0 -11 -4 -11
-9 0 -5 -8 -8 -17 -6 -20 3 -88 -29 -98 -45 -4 -6 -10 -8 -15 -5 -11 7 -143
-123 -153 -149 -4 -9 -10 -16 -15 -16 -5 0 -17 -18 -27 -40 -10 -22 -22 -40
-26 -40 -14 0 -36 -54 -33 -82 2 -16 -2 -28 -7 -28 -6 0 -7 -4 -4 -10 3 -5 2
-10 -4 -10 -13 0 -25 -39 -22 -67 1 -13 -2 -23 -6 -23 -13 0 -9 -191 4 -215
20 -37 52 -58 98 -65 25 -4 45 -4 45 1 0 10 50 22 93 22 20 0 37 3 37 7 0 11
71 52 78 46 7 -8 62 23 62 34 0 6 3 9 8 9 4 -1 9 -1 12 1 3 1 15 3 28 6 27 5
132 63 132 73 0 4 17 16 38 27 20 10 39 22 42 25 3 3 16 12 30 19 29 15 131
99 143 118 14 22 58 62 67 62 6 0 9 4 8 9 -3 9 89 111 95 105 2 -2 10 7 17 21
7 14 19 25 27 25 7 0 13 10 13 23 0 13 11 38 25 57 18 25 23 42 21 71 -6 58
-44 88 -111 87 -46 -1 -94 10 -114 26 -15 12 -236 18 -247 7z"/>
<path d="M13012 10163 c-14 -5 -85 -73 -76 -73 6 0 -28 -51 -48 -72 -10 -10
-18 -23 -18 -30 0 -15 0 -14 -171 -190 -73 -76 -138 -138 -144 -138 -5 0 -16
-9 -23 -20 -7 -11 -18 -20 -26 -20 -7 0 -22 -11 -32 -25 -10 -14 -24 -25 -30
-25 -6 0 -19 -9 -30 -21 -10 -12 -32 -28 -49 -36 -16 -9 -32 -19 -35 -22 -3
-3 -22 -14 -42 -25 -20 -10 -46 -27 -58 -38 -11 -11 -26 -18 -32 -16 -6 2 -24
-9 -40 -24 -17 -16 -36 -27 -42 -26 -6 1 -33 -10 -59 -26 -26 -16 -51 -26 -54
-22 -3 3 -21 -5 -39 -19 -18 -14 -54 -29 -79 -34 -25 -5 -54 -16 -65 -26 -10
-9 -33 -25 -52 -35 -18 -10 -32 -23 -31 -29 2 -6 -2 -11 -9 -11 -6 0 -8 -3 -5
-7 4 -3 -3 -17 -15 -30 -12 -13 -18 -23 -14 -23 5 0 4 -6 -1 -12 -10 -13 -12
-4866 -2 -4897 6 -22 52 -59 81 -66 16 -4 30 -1 40 9 9 8 18 12 22 9 3 -4 6
-2 6 4 0 6 11 11 26 11 14 0 36 10 50 22 13 13 24 20 24 15 0 -5 5 -4 12 3 7
7 27 12 45 12 36 0 89 22 95 40 2 6 21 11 43 12 22 0 49 8 60 18 20 18 64 36
78 32 4 -1 7 3 7 9 0 5 4 8 9 5 5 -3 11 1 15 9 3 8 12 15 21 15 8 0 15 4 15 9
0 5 14 7 30 6 18 -2 40 5 54 16 13 11 29 19 35 19 6 0 11 4 11 9 0 6 8 9 18 9
25 -1 72 20 78 35 2 7 19 14 37 15 17 1 37 8 42 15 6 6 22 18 37 26 15 8 37
23 48 33 11 10 33 21 49 24 16 4 32 12 35 20 3 8 12 14 20 14 8 0 16 4 18 9 2
6 18 13 37 16 19 3 48 16 65 28 17 12 37 21 43 19 7 -2 13 2 13 8 0 5 7 10 15
10 8 0 22 12 32 27 14 21 18 53 21 157 7 295 10 1222 3 1231 -9 12 -8 3386 0
3400 9 15 8 425 0 425 -10 0 -8 92 3 109 5 7 5 16 0 20 -5 3 -10 19 -11 36 -3
33 -41 75 -61 68z"/>
<path d="M11123 9723 c-29 -14 -53 -30 -53 -35 0 -5 -4 -6 -10 -3 -5 3 -10 1
-10 -4 0 -6 -5 -11 -11 -11 -6 0 -21 -9 -33 -20 -53 -50 -83 -71 -106 -77 -14
-3 -41 -17 -60 -32 -19 -14 -40 -26 -46 -26 -7 0 -21 -10 -32 -22 -11 -13 -23
-23 -27 -23 -8 0 -92 -58 -113 -78 -20 -18 -72 -44 -72 -35 0 4 -7 -3 -16 -15
-8 -12 -20 -20 -25 -17 -5 4 -9 1 -9 -4 0 -6 -3 -10 -7 -9 -15 4 -58 -15 -73
-31 -8 -9 -22 -17 -30 -19 -8 -2 -26 -13 -40 -26 -33 -29 -135 -94 -166 -106
-19 -8 -34 -5 -64 10 -22 11 -39 24 -37 28 1 4 -11 21 -26 37 -15 17 -30 41
-34 54 -3 14 -17 40 -30 59 -12 19 -23 39 -23 44 0 5 -4 7 -9 4 -5 -3 -17 7
-28 23 -10 16 -22 30 -28 31 -18 4 -55 37 -48 44 3 3 -3 6 -13 6 -11 0 -35 11
-54 25 -19 14 -37 25 -41 25 -4 0 -20 5 -36 11 -15 6 -29 10 -31 9 -1 0 -10 6
-18 15 -13 12 -49 15 -214 15 -116 0 -201 -4 -205 -10 -3 -5 -12 -7 -20 -3 -8
3 -15 0 -15 -6 0 -6 -9 -11 -20 -11 -11 0 -23 -6 -25 -12 -3 -7 -22 -13 -42
-14 -20 0 -39 -6 -41 -12 -2 -7 -10 -12 -17 -12 -7 0 -15 -4 -17 -9 -1 -5 -14
-11 -27 -13 -14 -1 -36 -12 -49 -23 -64 -53 -112 -99 -112 -108 0 -6 -14 -32
-30 -58 -17 -26 -32 -60 -33 -75 -1 -16 -10 -36 -19 -45 -10 -9 -18 -21 -18
-28 0 -6 -4 -11 -8 -11 -4 0 -8 -21 -7 -47 0 -30 -9 -65 -24 -97 -24 -51 -37
-141 -21 -151 4 -3 7 -16 5 -30 -1 -14 2 -25 6 -25 5 0 9 -4 9 -9 0 -5 5 -22
11 -38 7 -15 13 -54 14 -85 1 -42 7 -63 21 -75 21 -20 25 -32 29 -83 2 -20 -3
-42 -12 -52 -13 -14 -76 -34 -95 -30 -5 1 -8 -2 -8 -6 0 -4 -32 -8 -72 -7 -40
1 -91 -5 -113 -13 -22 -7 -51 -15 -65 -17 -14 -1 -25 -4 -25 -5 0 -11 -1102
-18 -1150 -7 -11 2 -33 10 -50 17 -16 6 -65 11 -107 11 -50 -1 -78 2 -78 9 0
6 -5 8 -10 5 -10 -6 -64 30 -66 43 -2 32 -18 73 -31 80 -9 5 -17 29 -21 58 -3
30 -12 55 -24 65 -10 9 -18 21 -18 27 0 5 -15 28 -32 49 -18 22 -42 52 -53 66
-11 15 -24 27 -30 27 -5 0 -25 14 -43 30 -19 16 -42 32 -53 35 -10 4 -19 10
-19 15 0 5 -16 14 -36 20 -20 7 -45 21 -55 31 -12 12 -33 19 -58 19 -22 0 -43
5 -46 10 -4 6 -11 8 -16 5 -5 -4 -9 -1 -9 4 0 6 -18 14 -40 17 -22 4 -40 9
-40 13 0 8 -138 6 -147 -2 -3 -4 -15 -7 -25 -7 -10 0 -37 -9 -58 -20 -22 -11
-43 -19 -47 -18 -16 4 -83 -13 -83 -22 0 -4 -21 -16 -47 -26 -27 -9 -55 -25
-63 -35 -8 -9 -24 -20 -35 -23 -11 -3 -29 -19 -40 -36 -11 -16 -23 -30 -28
-30 -11 0 -82 -82 -80 -92 2 -4 -2 -8 -7 -8 -6 0 -10 -6 -10 -14 0 -8 -6 -21
-14 -29 -8 -7 -21 -34 -29 -58 -9 -24 -25 -62 -36 -84 -18 -34 -21 -57 -21
-177 0 -130 2 -142 27 -191 24 -49 29 -78 24 -165 -2 -40 -168 -187 -214 -190
-4 -1 -21 -15 -38 -33 -16 -17 -32 -29 -35 -26 -6 6 -128 -65 -151 -89 -8 -8
-23 -14 -34 -14 -11 0 -22 -7 -25 -15 -4 -9 -39 -32 -80 -51 -40 -20 -84 -46
-96 -58 -27 -26 -120 -81 -130 -78 -5 1 -8 -3 -8 -8 0 -6 -6 -10 -14 -10 -7 0
-19 -6 -25 -14 -7 -8 -26 -18 -42 -21 -16 -4 -35 -15 -41 -24 -7 -10 -28 -26
-46 -35 -53 -27 -109 -172 -72 -184 6 -2 8 -7 5 -12 -7 -11 43 -62 55 -55 6 3
10 2 10 -3 0 -11 78 -15 94 -5 6 4 19 8 29 9 33 3 36 4 55 24 10 11 27 21 38
23 24 4 66 26 79 43 6 6 26 15 47 18 20 4 39 13 42 22 3 8 10 13 14 10 5 -3
33 15 62 39 30 24 56 42 58 40 3 -2 16 5 30 15 13 11 30 20 36 20 6 0 26 13
44 30 18 16 38 27 45 25 6 -3 25 7 42 22 16 16 32 28 35 28 3 0 18 11 33 25
16 14 32 26 35 26 27 6 52 18 52 25 0 5 15 16 33 25 17 9 35 22 39 28 4 6 8 8
8 3 0 -15 66 27 121 77 l55 52 87 -1 c80 -1 91 -4 127 -31 22 -16 40 -33 40
-37 0 -5 4 -6 9 -2 5 3 16 -2 25 -10 15 -15 34 -20 111 -30 64 -9 90 -13 90
-15 0 -1 15 -3 33 -4 17 -1 32 0 32 4 0 3 10 7 23 7 126 9 199 20 207 33 5 8
13 15 17 15 17 1 83 38 83 46 0 5 7 9 15 9 8 0 15 5 15 11 0 5 5 7 10 4 6 -4
17 -1 25 5 8 7 15 9 15 5 0 -4 20 13 44 37 24 23 57 55 73 70 52 49 63 65 63
92 0 16 11 41 25 58 14 16 26 36 26 44 3 26 4 29 24 59 11 17 27 32 35 34 31
8 290 7 290 -2 0 -4 5 -5 10 -2 6 3 10 2 10 -3 0 -10 26 -21 70 -29 50 -9 980
-8 980 1 0 5 3 6 7 3 3 -4 22 5 41 20 20 15 32 21 27 13 -6 -10 -4 -11 6 -4 8
5 59 10 114 10 98 2 145 9 145 24 0 13 45 27 88 26 23 -1 42 2 42 7 0 4 5 7
11 7 6 0 24 9 39 20 16 11 32 20 37 19 10 -3 65 12 78 20 11 8 22 7 48 -2 9
-4 25 -10 35 -13 9 -4 43 -7 75 -7 31 0 57 -4 57 -9 0 -4 3 -7 8 -6 4 1 20 -6
35 -16 23 -16 49 -19 154 -20 110 -1 131 2 168 21 24 12 46 19 49 16 3 -4 6
-2 6 4 0 6 12 10 28 11 52 0 59 2 83 23 13 11 35 23 50 26 14 2 34 16 44 29
10 13 24 24 31 24 8 0 14 5 14 11 0 5 4 8 9 5 4 -3 18 6 31 19 13 13 26 23 29
22 3 -2 25 16 48 40 23 24 39 43 37 43 -3 0 8 17 25 37 16 20 28 40 25 45 -3
4 -1 8 3 8 14 0 85 151 90 190 4 42 14 94 20 110 4 8 7 18 7 22 2 16 53 55 69
52 9 -1 17 2 17 7 0 5 12 9 28 9 15 0 45 11 67 25 22 13 46 25 53 25 7 0 29
12 49 27 21 16 46 26 62 25 17 -1 38 8 57 26 18 15 38 28 45 30 8 2 23 12 35
23 11 10 25 19 30 19 6 0 29 14 52 31 24 18 49 28 58 25 8 -3 17 1 20 9 4 8
12 15 19 15 7 0 18 7 25 15 7 8 22 15 34 15 24 1 56 22 56 39 0 6 8 11 18 11
10 0 28 9 40 20 12 11 25 20 29 20 5 0 23 16 41 35 17 20 32 33 32 29 0 -3 7
-1 15 6 8 7 15 9 15 4 0 -5 5 -1 11 8 5 10 25 25 45 34 19 9 40 26 46 38 12
22 62 73 65 65 1 -2 10 5 20 16 12 13 18 34 17 61 -2 46 -14 73 -48 106 -22
22 -33 27 -63 32 -7 1 -16 5 -19 9 -15 14 -71 5 -121 -20z"/>
<path d="M10523 8670 c-13 -5 -23 -14 -23 -20 0 -5 -6 -10 -14 -10 -19 0 -33
-20 -39 -56 -3 -16 -14 -49 -26 -72 -12 -23 -19 -42 -15 -42 4 0 2 -6 -3 -12
-5 -7 -9 -33 -8 -58 0 -29 -6 -55 -18 -73 -10 -15 -20 -33 -21 -40 -6 -31 -41
-86 -62 -98 -13 -6 -21 -16 -18 -20 2 -5 -13 -26 -36 -49 -22 -22 -40 -44 -40
-50 0 -5 -6 -13 -13 -17 -12 -8 -60 -66 -87 -108 -13 -19 -15 -253 -15 -1954
0 -1062 -2 -1931 -5 -1931 -4 0 -7 -12 -8 -27 0 -16 -4 -39 -7 -53 -7 -28 26
-80 51 -80 8 0 14 -4 14 -9 0 -4 12 -6 28 -3 15 3 119 9 232 13 235 9 250 10
250 21 0 5 11 6 25 4 14 -3 25 -1 25 4 0 11 77 21 178 22 45 1 82 5 82 11 0 5
6 7 14 4 7 -3 19 0 25 6 6 6 11 8 11 4 0 -4 15 0 33 10 23 12 59 17 127 19 52
1 96 3 98 4 3 3 11 6 48 15 17 4 42 20 55 36 l24 29 4 348 c4 412 4 565 0 850
-2 116 -1 212 4 212 4 0 5 105 3 233 -9 468 -11 929 -4 933 6 4 9 51 8 119 0
11 0 49 1 85 0 36 0 72 0 80 -1 8 -1 44 0 80 0 36 0 72 0 80 -1 8 -1 44 0 80
0 36 0 72 0 80 -1 8 -1 44 0 80 0 36 0 72 0 80 -1 8 -1 44 0 80 0 36 0 72 0
80 0 8 0 199 -1 423 0 224 2 413 6 419 11 18 6 132 -5 136 -6 2 -11 10 -11 17
0 23 -56 63 -84 60 -14 -2 -26 0 -26 3 0 4 -16 8 -35 8 -19 1 -35 -2 -35 -6 0
-7 -554 -7 -580 1 -8 2 -17 7 -20 10 -10 12 -65 18 -87 9z"/>
<path d="M9090 7903 c-8 -3 -18 -10 -21 -15 -3 -5 -23 -11 -45 -15 -21 -3 -50
-16 -64 -29 -14 -13 -34 -25 -45 -27 -11 -1 -26 -6 -32 -10 -7 -5 -13 -6 -13
-3 0 3 -11 -6 -25 -20 -14 -14 -30 -22 -36 -18 -11 6 -99 -34 -99 -46 0 -3
-30 -6 -67 -5 -53 1 -72 -3 -99 -21 -18 -12 -35 -20 -38 -16 -3 3 -6 1 -6 -5
0 -5 -21 -9 -47 -9 -27 1 -61 -5 -78 -13 -16 -9 -36 -17 -42 -18 -7 -2 -19 -4
-25 -6 -7 -1 -18 -5 -23 -9 -6 -4 -63 -7 -127 -7 -89 0 -122 -3 -141 -15 -13
-9 -27 -13 -32 -9 -4 5 -5 3 -2 -4 5 -7 -4 -14 -24 -18 -18 -4 -34 -16 -39
-28 -4 -12 -18 -30 -29 -39 l-21 -18 0 -1548 0 -1548 38 -36 c20 -20 49 -40
65 -43 15 -4 31 -13 35 -20 4 -7 34 -18 67 -24 33 -6 65 -18 72 -27 8 -10 32
-19 63 -22 27 -2 50 -8 50 -11 0 -4 10 -7 22 -8 11 -1 24 -6 27 -11 7 -12 66
-26 104 -25 15 0 53 -12 83 -27 45 -22 66 -26 111 -23 36 3 53 0 48 -7 -3 -5
2 -10 14 -10 11 0 26 -6 33 -12 18 -17 31 -20 103 -24 73 -4 98 -7 105 -15 3
-3 21 -12 40 -21 41 -18 232 -20 250 -2 14 14 30 114 19 114 -10 0 -12 863 -3
873 7 6 6 583 -3 1992 -2 341 0 627 3 635 4 8 8 20 9 25 1 6 3 13 5 18 1 4 4
12 5 17 1 6 3 11 5 13 10 12 8 62 -4 86 -8 15 -12 31 -9 35 4 3 1 6 -5 6 -7 0
-12 5 -12 10 0 14 -37 50 -44 43 -3 -4 -6 -1 -6 5 0 6 -7 9 -15 6 -8 -4 -15
-1 -15 5 0 12 -15 13 -40 4z"/>
<path d="M5819 6710 c-10 -14 -29 -35 -41 -47 l-22 -23 -1 -424 c0 -420 0
-425 21 -450 12 -13 25 -22 30 -18 4 4 5 0 2 -8 -4 -10 9 -28 35 -50 22 -19
50 -44 61 -56 60 -59 169 -154 173 -150 3 3 23 -13 43 -34 21 -22 43 -40 49
-40 6 0 11 -4 11 -10 0 -5 5 -9 12 -7 6 1 17 -9 25 -23 7 -14 13 -21 13 -16 0
6 15 -4 33 -21 17 -17 42 -36 55 -43 13 -6 31 -18 40 -26 71 -61 152 -124 161
-124 6 0 11 -4 11 -10 0 -9 54 -42 77 -46 7 -1 24 -14 38 -30 14 -15 28 -24
31 -21 4 4 24 -7 44 -23 20 -16 40 -27 44 -23 3 3 6 2 6 -4 0 -8 31 -23 48
-22 1 0 10 -7 18 -16 9 -8 21 -15 27 -15 7 0 24 -13 40 -29 18 -20 33 -27 47
-24 11 3 20 0 20 -6 0 -11 51 -41 70 -41 6 0 8 5 4 12 -5 7 -3 8 5 3 7 -4 20
1 30 12 14 15 17 35 16 108 -1 50 -5 97 -8 105 -3 8 -6 22 -7 30 -5 28 -19
894 -19 1080 0 14 -1 91 -3 173 -2 81 1 147 6 147 12 0 1 137 -13 153 -6 8 -9
16 -7 18 2 2 -2 10 -10 17 -8 7 -14 10 -14 6 0 -4 -8 2 -17 12 -10 10 -25 21
-33 23 -8 2 -266 5 -574 5 l-558 1 -19 -25z"/>
</g>
</svg>
